Coordinates
version=1
nRows=10
nColumns=23
inDegrees=yes

Units are S.I. units (second, meters, Newtons, ...)
If the header above contains a line with 'inDegrees', this indicates whether rotational values are in degrees (yes) or radians (no).

endheader
time	pelvis_tilt	pelvis_list	pelvis_rotation	pelvis_tx	pelvis_ty	pelvis_tz	hip_flexion_r	hip_adduction_r	hip_rotation_r	knee_angle_r	knee_angle_r_beta	ankle_angle_r	subtalar_angle_r	mtp_angle_r	hip_flexion_l	hip_adduction_l	hip_rotation_l	knee_angle_l	knee_angle_l_beta	ankle_angle_l	subtalar_angle_l	mtp_angle_l
      0.00000000	     -5.79599175	      3.94052134	      5.90161228	      2.15829373	      0.99452554	      1.03098930	     12.70071686	    -11.89072425	     -4.92619465	     79.17951551	      1.38194325	     -8.23198617	     -4.79730534	      0.00000000	     30.51999687	      6.10081533	     -5.23550264	     53.09068819	      0.92660731	     26.74419621	     -0.56059711	      0.00000000
      0.00666667	     -6.05208769	      3.99590286	      5.67566807	      2.15687118	      0.99343418	      1.03147802	     14.52743823	    -12.16615562	     -4.64581158	     80.20421750	      1.39982767	     -7.23112400	     -4.42122817	      0.00000000	     29.72709864	      5.91350952	     -5.50238253	     53.08791582	      0.92655892	     27.56435277	     -0.07665561	      0.00000000
      0.01333333	     -6.07324924	      3.98656148	      5.52947158	      2.15555067	      0.99282935	      1.03184528	     15.99566715	    -12.31204798	     -4.47171209	     81.02179154	      1.41409703	     -6.42110792	     -4.43930834	      0.00000000	     28.63853677	      5.77389782	     -5.48977149	     52.97389084	      0.92456881	     28.26296073	      0.02628697	      0.00000000
      0.02000000	     -6.40191870	      4.07593258	      5.26771539	      2.15425775	      0.99199429	      1.03228015	     17.87327736	    -12.61284617	     -4.19874478	     81.85700424	      1.42867424	     -5.33527314	     -3.66557578	      0.00000000	     27.81522936	      5.61480973	     -5.85378068	     52.72433064	      0.92021317	     28.62951666	      0.49339567	      0.00000000
      0.02666667	     -6.40114589	      4.00530523	      5.11577019	      2.15319940	      0.99214670	      1.03255980	     19.22892830	    -12.67277311	     -4.13632977	     82.33592315	      1.43703295	     -4.41510465	     -3.37642453	      0.00000000	     26.55876034	      5.39659159	     -5.90884535	     52.30341231	      0.91286675	     28.91100067	      0.67275162	      0.00000000
      0.03333333	     -6.33452783	      3.89336488	      4.96673466	      2.15226938	      0.99288476	      1.03279974	     20.44753539	    -12.64404370	     -4.13473125	     82.58544535	      1.44138794	     -3.50328550	     -3.02537056	      0.00000000	     25.15178880	      5.16789852	     -5.90040806	     51.70808608	      0.90247635	     29.09446636	      0.86657785	      0.00000000
      0.04000000	     -6.12485785	      3.78780342	      4.80044091	      2.15158306	      0.99439820	      1.03294513	     21.42503771	    -12.65397886	     -4.26217690	     82.58327419	      1.44135004	     -2.52365809	     -2.39078606	      0.00000000	     23.47985138	      4.91215933	     -5.98265607	     50.90401973	      0.88844275	     29.19463162	      1.14750757	      0.00000000
      0.04666667	     -6.26780162	      3.49112586	      4.78827215	      2.15091436	      0.99603451	      1.03288828	     22.66834665	    -12.49485263	     -4.62182005	     82.28797888	      1.43619617	     -2.12578251	     -2.29807839	      0.00000000	     22.17522145	      4.59568845	     -5.79485600	     50.02334188	      0.87307202	     29.27958573	      1.30019248	      0.00000000
      0.05333333	     -5.49576627	      3.44670211	      4.55954896	      2.15074351	      0.99939232	      1.03298942	     22.84285112	    -12.47733366	     -4.86606154	     81.76961941	      1.42714909	     -0.80465476	     -1.21107542	      0.00000000	     19.64647872	      4.37995813	     -5.93120625	     48.74734477	      0.85080167	     29.27731463	      1.99323473	      0.00000000
      0.06000000	     -5.77110290	      3.12630204	      4.51193465	      2.15031355	      1.00179487	      1.03289838	     24.10603600	    -12.23372042	     -5.29432426	     81.05250715	      1.41463312	     -0.29016611	     -1.13537436	      0.00000000	     18.36659027	      4.05167424	     -5.79079543	     47.60124560	      0.83079846	     29.26989996	      2.18237915	      0.00000000
